# xmcd CD database file
#
# Track frame offsets:
#	150
#	31207
#	44506
#	65260
#	87149
#	115689
#	128515
#	157314
#	171862
#	195353
#	246111
#	263002
#
# Disc length: 3830 seconds
#
# Revision: 0
# Processed by: cddbd v1.5.2PL0 Copyright (c) Steve Scherf et al.
# Submitted via: CDex 1.70beta2
#
DISCID=960ef40c
DTITLE=Charles and the Hawk Thompson, Sir Charles and Hawkin Thompson - For the Ears
DYEAR=1999
DGENRE=Jazz
TTITLE0=Fore!
TTITLE1=Ready for Freddie
TTITLE2=It's the talk of the town
TTITLE3=Dynaflow
TTITLE4=Oh joe!
TTITLE5=Best by Test
TTITLE6=Love for Sale
TTITLE7=Stompin' at the Savoy
TTITLE8=Hey There
TTITLE9=For the Ears
TTITLE10=Bop this
TTITLE11=Under the Sweetheart Tree
EXTD=YEAR: 1999
EXTT0=
EXTT1=
EXTT2=
EXTT3=
EXTT4=
EXTT5=
EXTT6=
EXTT7=
EXTT8=
EXTT9=
EXTT10=
EXTT11=
PLAYORDER=
